<svg width="16" height="20" viewBox="0 0 16 20" fill="none" xmlns="http://www.w3.org/2000/svg">
<path d="M13.1512 7.25581C13.1512 4.25036 10.7148 1.81395 7.7093 1.81395C4.70384 1.81395 2.26744 4.25036 2.26744 7.25581V14.5116H13.1512V7.25581ZM14.9651 15.1163L15.3279 15.6C15.4782 15.8004 15.4376 16.0846 15.2372 16.2349C15.1588 16.2937 15.0633 16.3256 14.9651 16.3256H0.453488C0.203036 16.3256 0 16.1225 0 15.8721C0 15.774 0.0318257 15.6785 0.0906976 15.6L0.453488 15.1163V7.25581C0.453488 3.24854 3.70203 0 7.7093 0C11.7166 0 14.9651 3.24854 14.9651 7.25581V15.1163ZM5.44186 17.2326H9.97674C9.97674 18.4848 8.96157 19.5 7.7093 19.5C6.45704 19.5 5.44186 18.4848 5.44186 17.2326Z" fill="#90959A"/>
</svg>
