<svg width="17" height="18" viewBox="0 0 17 18" fill="none" xmlns="http://www.w3.org/2000/svg">
<path d="M3.59982 3.6V0.9C3.59982 0.402948 4.00277 0 4.49982 0H15.2998C15.7969 0 16.1998 0.402948 16.1998 0.9V13.5C16.1998 13.9971 15.7969 14.4 15.2998 14.4H12.5998V17.0992C12.5998 17.5967 12.1949 18 11.6937 18H0.905994C0.405531 18 0 17.5999 0 17.0992L0.00233996 4.50078C0.00242996 4.0033 0.407376 3.6 0.908478 3.6H3.59982ZM1.80218 5.4L1.80017 16.2H10.7998V5.4H1.80218ZM5.39982 3.6H12.5998V12.6H14.3998V1.8H5.39982V3.6Z" fill="white"/>
</svg>
